<svg width="25" height="25" viewBox="0 0 25 25" fill="none" xmlns="http://www.w3.org/2000/svg">
<g clip-path="url(#clip0_8_10)">
<g filter="url(#filter0_dd_8_10)">
<path d="M6.25001 12.5V12.5104M9.19584 9.55417C9.97697 10.3355 10.4158 11.3951 10.4158 12.5C10.4158 13.6049 9.97697 14.6645 9.19584 15.4458M12.1427 6.60729C12.9166 7.38112 13.5305 8.2998 13.9493 9.31087C14.3681 10.3219 14.5836 11.4056 14.5836 12.5C14.5836 13.5944 14.3681 14.6781 13.9493 15.6891C13.5305 16.7002 12.9166 17.6189 12.1427 18.3927" stroke="white" stroke-width="2.08333" stroke-linecap="round" stroke-linejoin="round"/>
<path d="M15.0886 3.66146C19.9708 8.54271 19.9708 16.4573 15.0886 21.3698" stroke="white" stroke-width="2.08333" stroke-linecap="round" stroke-linejoin="round"/>
</g>
</g>
<defs>
<filter id="filter0_dd_8_10" x="1.20834" y="2.61979" width="22.5836" height="27.7917" filterUnits="userSpaceOnUse" color-interpolation-filters="sRGB">
<feFlood flood-opacity="0" result="BackgroundImageFix"/>
<feColorMatrix in="SourceAlpha" type="matrix" values="0 0 0 0 0 0 0 0 0 0 0 0 0 0 0 0 0 0 127 0" result="hardAlpha"/>
<feOffset dy="4"/>
<feGaussianBlur stdDeviation="2"/>
<feComposite in2="hardAlpha" operator="out"/>
<feColorMatrix type="matrix" values="0 0 0 0 0 0 0 0 0 0 0 0 0 0 0 0 0 0 0.25 0"/>
<feBlend mode="normal" in2="BackgroundImageFix" result="effect1_dropShadow_8_10"/>
<feColorMatrix in="SourceAlpha" type="matrix" values="0 0 0 0 0 0 0 0 0 0 0 0 0 0 0 0 0 0 127 0" result="hardAlpha"/>
<feOffset dy="4"/>
<feGaussianBlur stdDeviation="2"/>
<feComposite in2="hardAlpha" operator="out"/>
<feColorMatrix type="matrix" values="0 0 0 0 0 0 0 0 0 0 0 0 0 0 0 0 0 0 0.25 0"/>
<feBlend mode="normal" in2="effect1_dropShadow_8_10" result="effect2_dropShadow_8_10"/>
<feBlend mode="normal" in="SourceGraphic" in2="effect2_dropShadow_8_10" result="shape"/>
</filter>
<clipPath id="clip0_8_10">
<rect width="25" height="25" fill="white" transform="matrix(0 1 -1 0 25 0)"/>
</clipPath>
</defs>
</svg>
